<?xml version="1.0" standalone="no"?>
<!DOCTYPE svg PUBLIC "-//W3C//DTD SVG 20010904//EN"
 "http://www.w3.org/TR/2001/REC-SVG-20010904/DTD/svg10.dtd">
<svg version="1.0" xmlns="http://www.w3.org/2000/svg"
 width="1276.000000pt" height="1238.000000pt" viewBox="0 0 1276.000000 1238.000000"
 preserveAspectRatio="xMidYMid meet">

<g transform="translate(0.000000,1238.000000) scale(0.100000,-0.100000)"
fill="#000000" stroke="none">
<path d="M2186 9114 c-197 -48 -378 -228 -431 -430 -21 -81 -22 -696 -1 -795
33 -156 114 -304 228 -420 67 -68 106 -95 325 -224 322 -191 345 -207 387
-268 63 -94 66 -119 66 -521 0 -403 -1 -408 -69 -453 -32 -22 -44 -23 -193
-23 -172 0 -198 6 -237 56 -21 26 -21 36 -21 435 l0 409 -250 0 -251 0 3 -467
c3 -454 4 -470 25 -526 69 -181 217 -323 398 -380 65 -20 90 -22 330 -22 224
0 268 3 320 18 192 59 337 195 408 383 21 58 22 70 25 532 3 449 2 476 -18
560 -40 167 -143 334 -272 442 -37 30 -177 120 -313 200 -135 80 -268 164
-295 188 -32 28 -61 66 -82 110 l-33 67 0 280 c0 254 2 282 18 307 40 59 57
63 242 63 163 0 171 -1 204 -24 58 -42 61 -60 61 -366 l0 -275 245 0 245 0 0
328 c0 263 -3 339 -15 387 -54 204 -227 376 -431 429 -83 22 -529 22 -618 0z"/>
<path d="M8553 9058 l-73 -73 0 -1663 c0 -986 4 -1662 9 -1662 8 0 45 -90 38
-95 -6 -6 -147 -12 -147 -7 0 4 21 28 47 54 l47 48 -282 0 -282 0 0 29 0 30
-53 -25 c-30 -13 -91 -29 -136 -36 -213 -30 -405 59 -494 230 -68 132 -67 112
-67 969 0 738 1 773 20 848 11 43 34 104 51 134 l31 56 -61 -60 c-34 -33 -73
-76 -86 -95 -22 -33 -23 -40 -15 -105 5 -38 9 -497 10 -1019 l0 -949 45 -44
c140 -133 375 -161 588 -68 14 6 17 2 17 -19 0 -24 3 -26 48 -27 54 -2 71 1
-273 -44 -307 -41 -619 -92 -945 -156 -1399 -274 -2532 -334 -3760 -198 -415
46 -988 139 -1257 206 l-23 5 0 -331 c0 -182 -4 -331 -8 -331 -17 0 -240 41
-390 71 -84 17 -155 29 -158 27 -2 -3 85 -157 194 -343 l199 -337 -198 -333
c-110 -184 -199 -338 -199 -343 0 -10 324 -75 575 -116 441 -73 938 -127 1294
-143 l151 -6 0 242 0 243 48 -6 c284 -37 1100 -57 1497 -37 689 35 1331 116
2028 256 1008 202 2092 302 2882 266 259 -12 596 -35 668 -47 l37 -6 0 -219
c0 -167 3 -220 13 -223 6 -2 98 -9 203 -15 447 -27 1051 -103 1588 -201 120
-22 220 -39 222 -38 1 2 -81 149 -183 328 -101 179 -191 339 -200 356 l-15 31
201 323 c111 178 200 324 198 326 -5 5 -495 94 -517 94 -19 0 -20 8 -20 244
l0 244 -52 12 c-89 19 -416 77 -533 95 -60 9 -126 20 -145 24 l-35 7 -2 264
-2 265 29 -56 c62 -119 150 -164 325 -164 98 0 116 3 167 27 127 59 208 177
229 334 6 51 9 337 7 814 -3 719 -4 736 -24 797 -45 130 -115 211 -232 266
-61 29 -75 32 -167 31 -88 0 -107 -3 -162 -28 -59 -27 -113 -75 -155 -136 -17
-24 -17 -23 -17 68 -1 50 -4 92 -8 91 -5 0 -96 -39 -203 -87 l-195 -88 -3
-1172 -2 -1172 -24 0 c-61 0 -56 -101 -56 1199 l0 1186 -35 -60 -34 -60 -1
-931 c0 -898 -1 -934 -20 -1009 -14 -56 -20 -111 -20 -193 l0 -114 -32 5 c-18
3 -72 9 -120 13 l-88 6 49 55 c54 60 102 148 129 233 15 51 17 183 19 1648 l3
1592 -250 0 -250 0 0 -1532 c0 -1440 -1 -1535 -18 -1568 -9 -19 -32 -45 -51
-57 -32 -22 -44 -23 -198 -23 -183 0 -209 7 -243 63 -20 31 -20 62 -20 1575
l0 1542 -250 0 -250 0 0 -1580 c0 -1136 3 -1594 11 -1632 15 -70 51 -149 94
-210 20 -27 33 -53 30 -58 -4 -6 -24 -10 -45 -10 -45 0 -65 20 -110 114 -70
148 -64 3 -70 1814 l-5 1633 -72 -73z m2602 -1477 c16 -9 41 -39 55 -66 l25
-49 0 -606 c0 -569 -1 -607 -19 -642 -27 -55 -78 -83 -151 -83 -73 0 -124 28
-151 83 -18 35 -19 72 -19 632 0 545 1 599 18 641 40 105 147 145 242 90z
m-1540 -2121 c498 -29 1141 -104 1585 -185 145 -26 123 -26 -177 5 -172 18
-288 24 -238 13 216 -48 602 -159 591 -170 -2 -3 -107 7 -233 21 -125 14 -264
27 -308 30 l-80 6 105 -25 c205 -49 599 -173 510 -160 -55 7 -488 54 -555 60
-47 3 -28 -4 95 -35 163 -41 483 -141 476 -148 -3 -2 -78 5 -168 17 -90 11
-217 25 -283 31 -66 6 -133 13 -150 15 -57 8 6 -12 144 -45 151 -36 452 -131
434 -137 -6 -2 -85 5 -175 16 -236 29 -395 44 -410 38 -7 -3 -3 -6 9 -6 62 -2
613 -165 600 -177 -2 -2 -68 5 -148 16 -212 28 -470 53 -476 46 -4 -3 2 -6 13
-6 59 0 614 -164 600 -177 -2 -3 -76 5 -163 16 -202 26 -446 52 -451 47 -2 -3
23 -9 55 -16 147 -29 666 -193 554 -175 -104 16 -428 55 -506 60 l-90 6 151
-39 c225 -59 528 -164 424 -148 -85 14 -432 55 -505 61 l-80 6 151 -39 c141
-37 411 -123 444 -143 23 -13 -2 -12 -152 11 -160 23 -429 52 -435 46 -2 -2
31 -12 74 -21 162 -36 603 -179 590 -191 -2 -2 -109 14 -238 36 -1104 186
-2029 234 -2984 154 -533 -44 -1091 -124 -1679 -240 -1439 -283 -2651 -332
-3956 -158 -211 28 -621 95 -755 124 -106 23 -97 22 255 -15 408 -42 410 -42
170 15 -129 30 -487 144 -425 135 34 -5 485 -53 560 -59 64 -5 62 -5 -145 48
-170 43 -435 125 -427 132 1 2 73 -5 158 -16 84 -10 210 -24 279 -30 69 -6
139 -12 155 -15 58 -8 -7 12 -145 45 -74 17 -207 56 -295 86 -175 59 -181 58
105 24 91 -10 206 -21 255 -25 l90 -6 -170 45 c-93 25 -228 65 -300 90 -148
52 -168 51 195 10 271 -30 317 -30 181 1 -181 42 -596 176 -496 161 146 -23
520 -66 570 -66 17 1 -39 18 -122 40 -142 35 -468 138 -461 145 2 1 102 -10
223 -25 121 -15 261 -31 310 -34 l90 -6 -101 24 c-139 33 -321 88 -434 131
-77 29 -87 35 -51 30 344 -45 624 -74 566 -59 -11 3 -67 17 -125 31 -113 27
-474 142 -467 149 2 3 87 -6 188 -20 215 -29 410 -49 416 -42 2 2 -15 7 -39
11 -117 20 -567 159 -554 172 2 3 71 -5 153 -16 163 -23 434 -53 439 -48 2 2
-50 15 -114 31 -186 44 -666 210 -552 191 19 -3 122 -21 228 -40 819 -146
1668 -212 2391 -186 750 27 1394 102 2161 252 719 141 1380 229 2020 268 195
12 856 12 1055 1z m1762 -216 c-3 -3 -12 -4 -19 -1 -8 3 -5 6 6 6 11 1 17 -2
13 -5z m-9650 -1320 c-3 -3 -12 -4 -19 -1 -8 3 -5 6 6 6 11 1 17 -2 13 -5z"/>
<path d="M11015 7507 c-17 -14 -30 -39 -36 -67 -12 -67 -11 -1140 1 -1177 24
-67 139 -71 169 -6 8 17 11 199 11 598 0 509 -2 579 -16 616 -25 61 -82 77
-129 36z"/>
<path d="M9035 5211 c-71 -18 -132 -71 -148 -126 -4 -11 -7 -123 -9 -250 -2
-206 0 -234 16 -265 45 -85 98 -113 216 -114 70 -1 94 3 132 22 97 48 108 86
108 369 0 234 -3 255 -49 307 -43 49 -183 79 -266 57z m113 -147 c22 -15 22
-19 22 -225 0 -196 -1 -210 -20 -229 -25 -25 -41 -25 -71 -1 -23 18 -23 19
-20 227 2 174 5 212 18 227 20 21 42 22 71 1z"/>
<path d="M8677 5193 l-38 -4 7 -140 7 -139 -57 0 -56 0 0 73 c0 39 -3 101 -6
137 l-6 65 -87 -4 c-47 -1 -87 -4 -89 -6 -3 -3 28 -630 34 -683 l5 -43 87 3
87 3 -3 95 c-1 52 -5 120 -8 151 l-6 57 52 7 c28 4 53 5 56 3 2 -2 7 -70 12
-151 4 -80 11 -149 15 -153 3 -4 44 -3 91 1 l85 7 -5 46 c-2 26 -8 148 -14
272 -5 124 -13 267 -16 318 l-6 92 -52 -2 c-28 -1 -68 -3 -89 -5z"/>
<path d="M9395 5163 c3 -21 21 -186 40 -367 19 -180 35 -330 37 -331 2 -1 44
-5 95 -7 l91 -4 32 165 c17 92 37 204 43 251 l12 85 11 -248 c7 -136 15 -251
19 -255 11 -12 187 -18 191 -7 10 29 165 707 162 710 -2 1 -39 4 -83 6 l-80 4
-32 -180 c-17 -99 -36 -211 -41 -250 l-9 -70 -2 59 c-1 55 -31 449 -35 453 -3
4 -157 6 -161 2 -7 -7 -95 -412 -97 -445 -3 -49 -15 194 -17 327 -1 146 5 139
-114 139 l-67 0 5 -37z"/>
<path d="M8009 5154 c-51 -15 -114 -76 -125 -119 -3 -14 -4 -54 -2 -89 3 -49
11 -75 34 -112 26 -42 43 -56 128 -100 127 -67 142 -82 137 -146 -2 -24 -29
-48 -55 -48 -32 0 -54 28 -62 78 -6 39 -9 42 -39 42 -18 0 -53 -3 -79 -6 l-46
-7 0 -46 c0 -69 39 -141 92 -171 34 -19 56 -24 118 -23 110 1 179 35 218 108
22 41 21 167 -2 220 -25 59 -40 71 -157 131 -85 44 -109 61 -119 85 -18 43 -1
79 39 79 34 0 61 -30 61 -69 0 -24 0 -24 81 -18 44 3 83 8 86 11 10 9 -17 100
-40 134 -48 71 -161 99 -268 66z"/>
<path d="M7445 5085 c-5 -2 -32 -6 -58 -10 l-49 -7 6 -136 c4 -75 8 -182 11
-237 4 -78 2 -92 -6 -65 -48 168 -122 416 -124 418 -2 2 -40 -2 -85 -9 l-82
-13 4 -264 c2 -150 0 -245 -5 -221 -8 43 -108 462 -111 466 -3 4 -165 -23
-170 -28 -4 -5 219 -687 227 -695 3 -3 47 0 97 7 l92 12 -6 196 c-4 108 -9
223 -11 256 l-5 60 15 -60 c46 -185 109 -421 114 -427 6 -7 179 17 189 26 2 3
7 170 10 371 l5 365 -24 -1 c-13 0 -28 -2 -34 -4z m-78 -527 c-3 -8 -6 -5 -6
6 -1 11 2 17 5 13 3 -3 4 -12 1 -19z"/>
<path d="M6520 4933 c-96 -19 -177 -36 -179 -38 -3 -4 130 -706 136 -714 1 -2
93 13 203 34 159 31 200 42 200 54 0 16 -17 96 -24 117 -3 8 -37 5 -115 -11
l-111 -22 -5 21 c-18 79 -25 113 -25 127 0 12 22 20 101 34 94 16 100 19 95
39 -3 11 -8 41 -12 64 -4 24 -13 46 -20 49 -7 2 -49 -3 -94 -12 -44 -9 -86
-15 -92 -13 -7 3 -17 32 -23 66 l-11 61 50 10 c28 6 79 15 114 22 34 6 62 14
62 18 -1 3 -6 33 -13 66 -11 53 -16 60 -37 62 -14 0 -104 -15 -200 -34z"/>
<path d="M6190 4866 c-64 -11 -65 -12 -62 -41 8 -77 35 -215 57 -283 13 -42
23 -78 21 -80 -2 -2 -48 80 -101 182 -67 128 -103 186 -114 185 -9 0 -47 -6
-86 -12 -66 -12 -70 -14 -67 -37 7 -56 119 -690 123 -694 4 -4 159 21 164 26
7 7 -37 231 -59 301 -13 42 -23 77 -21 77 1 0 44 -75 94 -167 50 -93 95 -174
99 -180 6 -10 26 -10 91 2 46 8 85 16 86 17 1 2 -119 694 -124 716 -1 4 -33 0
-101 -12z"/>
<path d="M5128 4718 c-80 -9 -98 -14 -98 -27 0 -9 16 -172 37 -363 l37 -348
26 0 c14 0 84 7 155 15 147 17 206 40 243 95 28 42 29 103 2 344 -30 266 -47
290 -208 292 -53 1 -141 -3 -194 -8z m192 -143 c14 -17 53 -328 48 -385 -3
-31 -7 -37 -45 -50 -23 -8 -45 -12 -48 -9 -3 3 -14 89 -25 190 -11 101 -22
203 -25 227 l-6 42 44 0 c28 0 49 -6 57 -15z"/>
<path d="M2929 4718 c0 -2 -15 -165 -32 -363 l-33 -360 61 -8 c33 -4 114 -9
181 -10 115 -2 122 -1 160 25 52 34 77 86 82 170 5 87 -1 109 -40 149 -25 25
-29 34 -18 37 31 11 69 64 79 112 18 86 -5 154 -68 196 -34 22 -59 27 -183 39
-143 14 -188 17 -189 13z m258 -174 c27 -37 7 -108 -33 -118 -13 -4 -35 -4
-49 0 -27 7 -30 18 -18 99 l6 47 41 -5 c22 -3 46 -14 53 -23z m-28 -279 c11
-10 16 -33 15 -65 -1 -66 -22 -90 -81 -90 l-44 0 6 78 c4 42 9 83 11 91 6 18
71 8 93 -14z"/>
<path d="M4848 4693 l-77 -4 5 -97 c4 -53 14 -144 24 -202 10 -58 17 -106 16
-107 -2 -2 -38 87 -82 197 l-79 200 -85 -7 c-47 -3 -86 -7 -88 -8 -3 -2 38
-652 44 -692 l5 -33 62 0 c111 0 108 -3 101 109 -3 53 -14 139 -24 191 -10 52
-17 96 -16 98 2 1 38 -83 81 -188 l78 -190 83 0 c46 0 85 4 88 9 6 9 -30 637
-40 699 -3 17 -8 31 -12 30 -4 -1 -42 -4 -84 -5z"/>
<path d="M3430 4643 c0 -21 -7 -184 -15 -363 -8 -178 -12 -326 -9 -329 2 -2
42 -7 88 -9 l83 -4 6 68 c4 38 7 102 7 142 l0 72 31 0 c65 0 69 -8 69 -139 0
-149 1 -151 123 -151 86 0 101 6 72 30 -12 10 -15 39 -15 143 l0 130 -34 32
-35 32 23 13 c41 21 67 82 68 157 2 88 -20 135 -77 168 -44 26 -71 30 -272 40
l-113 5 0 -37z m264 -135 c9 -12 16 -41 16 -63 0 -59 -22 -85 -71 -85 l-39 0
0 69 c0 38 3 76 6 85 10 25 70 21 88 -6z"/>
<path d="M4085 4638 c-3 -13 -34 -167 -70 -343 -36 -176 -67 -330 -70 -342 -5
-23 -4 -23 84 -23 l89 0 6 28 c3 15 8 46 11 68 l6 42 61 6 c33 4 62 5 64 3 2
-2 10 -35 17 -73 l12 -69 88 -3 c66 -2 87 0 87 10 1 7 -37 172 -82 366 l-83
352 -107 0 c-103 0 -108 -1 -113 -22z m134 -276 c12 -73 21 -137 21 -142 0
-11 -80 -14 -80 -2 0 16 33 282 36 280 1 -2 11 -63 23 -136z"/>
<path d="M9583 9058 l-73 -73 0 -1513 0 -1512 58 0 c102 0 92 -180 90 1604
l-3 1567 -72 -73z"/>
<path d="M1718 8881 c-118 -124 -174 -227 -203 -369 -14 -70 -16 -133 -13
-419 5 -382 11 -420 88 -582 93 -193 203 -305 440 -445 159 -95 162 -96 226
-96 l64 0 0 -438 c0 -413 1 -440 18 -455 15 -14 42 -17 159 -17 123 0 142 2
156 18 15 17 17 59 17 393 l0 375 -25 50 c-14 28 -35 60 -48 71 -12 12 -134
87 -272 168 -137 81 -273 165 -301 185 -198 148 -330 377 -364 633 -7 54 -10
196 -8 388 4 248 8 315 22 364 18 65 62 161 96 213 12 17 20 32 17 32 -2 0
-34 -31 -69 -69z"/>
<path d="M3393 8608 l-53 -54 0 -332 0 -332 -335 0 -335 0 0 318 c0 234 -3
321 -12 330 -17 17 -309 17 -326 0 -19 -19 -17 -527 2 -572 23 -56 85 -114
181 -172 l91 -54 290 0 290 0 49 50 c27 28 53 50 57 50 4 0 8 -177 8 -394 0
-342 2 -404 17 -463 16 -60 18 -124 18 -523 0 -250 -2 -478 -5 -505 -4 -43 0
-61 29 -120 49 -100 161 -210 261 -258 108 -51 153 -57 413 -57 l233 0 58 59
59 60 41 -33 c147 -120 366 -140 569 -51 13 5 17 2 17 -14 0 -21 2 -21 287
-21 281 0 287 0 310 22 l23 21 0 -21 0 -22 663 0 663 0 74 75 74 75 -282 0
-282 0 -2 893 c-3 972 -1 933 -60 958 -38 16 -74 4 -102 -34 -21 -28 -21 -32
-24 -923 l-3 -894 -284 0 -285 0 -2 1106 -3 1105 -48 -56 -49 -56 24 -62 23
-62 3 -987 2 -988 -285 0 -285 0 0 24 0 25 -53 -25 c-30 -13 -91 -29 -136 -36
-161 -22 -314 23 -415 125 -62 62 -91 113 -122 217 l-23 75 0 -203 -1 -204
-247 4 c-221 4 -255 7 -314 26 -168 56 -314 201 -372 371 l-22 66 -5 1263 -5
1263 -52 -53z"/>
<path d="M7832 8587 l-72 -73 2 -218 3 -219 40 -12 c22 -6 55 -19 73 -29 l32
-17 0 321 c0 176 -1 320 -3 320 -1 0 -35 -33 -75 -73z"/>
<path d="M3530 7387 c0 -1326 -3 -1257 63 -1381 61 -115 179 -206 312 -241 43
-11 110 -15 242 -15 l183 0 0 205 0 205 -150 0 c-115 0 -158 4 -180 15 -62 32
-60 8 -60 754 l0 681 162 2 162 3 88 195 c48 107 87 198 87 203 1 4 -111 7
-249 7 l-250 0 0 285 0 285 -205 0 -205 0 0 -1203z"/>
<path d="M7990 8203 l0 -387 -35 49 c-152 217 -524 181 -653 -62 -65 -124 -63
-88 -60 -969 l3 -799 23 -55 c71 -172 216 -260 407 -247 145 10 238 65 293
172 l21 40 1 -102 0 -103 205 0 205 0 0 1425 0 1425 -205 0 -205 0 0 -387z
m-85 -631 c17 -10 41 -39 55 -67 l25 -50 3 -588 c2 -408 -1 -600 -9 -629 -39
-145 -265 -156 -318 -15 -7 19 -11 229 -11 630 0 564 2 605 19 642 45 97 144
129 236 77z"/>
<path d="M7760 7492 l-30 -30 0 -611 0 -610 28 -21 c21 -18 36 -21 72 -17 85
10 80 -29 80 627 0 318 -3 591 -6 607 -9 45 -36 73 -76 79 -32 6 -41 2 -68
-24z"/>
<path d="M4913 8005 c-194 -42 -355 -215 -383 -410 -5 -38 -10 -132 -10 -207
l0 -138 210 0 210 0 0 143 c0 159 6 178 66 203 45 19 128 18 170 -2 53 -25 64
-57 64 -183 0 -203 -32 -246 -298 -401 -189 -110 -274 -176 -339 -263 -96
-129 -113 -199 -113 -457 0 -216 8 -268 57 -363 42 -80 84 -119 173 -161 61
-29 72 -31 175 -30 88 0 121 5 166 22 66 26 120 75 154 140 l24 47 1 -97 0
-98 205 0 205 0 -2 948 -3 949 -42 85 c-73 146 -192 242 -340 273 -84 18 -267
18 -350 0z m327 -1443 c0 -299 -1 -309 -22 -352 -30 -58 -76 -85 -148 -85 -62
0 -110 23 -144 68 -20 27 -21 41 -21 215 l0 187 30 54 c16 29 44 65 62 78 38
29 224 142 236 143 4 0 7 -139 7 -308z"/>
<path d="M5089 6696 c-99 -66 -109 -92 -109 -288 0 -138 2 -158 19 -179 16
-20 29 -24 71 -24 42 0 55 4 71 24 18 21 19 42 19 267 0 134 -1 244 -2 244 -2
-1 -33 -20 -69 -44z"/>
<path d="M6568 8010 c-105 -27 -211 -105 -265 -197 l-28 -48 -3 123 c-1 67 -6
122 -10 121 -4 0 -95 -39 -202 -87 l-195 -88 -3 -1042 -2 -1042 205 0 204 0 3
853 c3 927 1 891 60 954 57 60 168 64 225 7 60 -61 58 -18 61 -956 l3 -858
205 0 205 0 -3 958 c-3 870 -5 962 -21 1015 -53 179 -172 282 -335 292 -37 2
-84 0 -104 -5z"/>
<path d="M4488 7803 c-72 -76 -126 -154 -154 -225 l-19 -48 -147 0 -148 0 0
-75 0 -75 72 0 73 0 73 73 c67 65 74 69 67 42 -4 -16 -9 -130 -12 -252 l-5
-223 258 0 258 0 130 77 c212 124 226 143 226 312 0 126 0 126 -91 119 l-44
-3 -5 -175 -5 -175 -283 0 -283 0 1 224 c1 212 2 229 26 300 14 42 32 86 40
99 8 12 21 33 30 47 26 40 12 30 -58 -42z"/>
<path d="M1573 6888 l-73 -73 0 -472 c0 -547 3 -574 76 -723 78 -156 213 -275
386 -338 72 -26 78 -27 355 -30 322 -4 351 0 493 70 67 32 103 60 175 130 88
87 89 88 35 53 -63 -41 -136 -70 -229 -91 -53 -13 -118 -15 -326 -12 -256 4
-261 4 -344 33 -211 72 -368 235 -442 460 -23 68 -23 82 -29 568 l-5 498 -72
-73z"/>
<path d="M4479 6743 c-36 -38 -79 -86 -96 -108 -73 -96 -123 -235 -123 -342
l0 -53 75 0 75 0 0 123 c0 175 38 309 117 415 13 17 23 32 21 32 -2 0 -33 -30
-69 -67z"/>
<path d="M10972 5642 l3 -87 125 0 c115 1 129 3 181 28 56 27 164 115 124 102
-104 -36 -280 -27 -382 19 l-54 25 3 -87z"/>
</g>
</svg>
