<svg xmlns="http://www.w3.org/2000/svg" xmlns:svgjs="http://svgjs.com/svgjs" xmlns:xlink="http://www.w3.org/1999/xlink" width="500" height="700" preserveAspectRatio="none" version="1.1" viewBox="0 0 500 700"><g fill="none" mask="url(&quot;#SvgjsMask3738&quot;)"><rect width="500" height="700" x="0" y="0" fill="rgba(249, 249, 249, 1)"/><rect width="264" height="264" x="242.08" y="-130.68" fill="url(#SvgjsPattern3740)" clip-path="url(&quot;#SvgjsClipPath3739&quot;)" transform="rotate(2.2, 374.08, 1.32)"/><rect width="240" height="240" x="229.57" y="160.07" fill="url(#SvgjsPattern3742)" clip-path="url(&quot;#SvgjsClipPath3741&quot;)" transform="rotate(60.75, 349.57, 280.07)"/><path stroke="rgba(211, 211, 211, 1)" stroke-dasharray="3 3" stroke-width="2.28" d="M421.9 381.88a5.6 5.6 0 1 0-0.15 11.2 5.6 5.6 0 1 0 0.15-11.2zM421.69 397.88a5.6 5.6 0 1 0-0.16 11.2 5.6 5.6 0 1 0 0.16-11.2zM421.47 413.88a5.6 5.6 0 1 0-0.15 11.2 5.6 5.6 0 1 0 0.15-11.2zM421.25 429.88a5.6 5.6 0 1 0-0.15 11.2 5.6 5.6 0 1 0 0.15-11.2z"/><rect width="189" height="189" x="357.14" y="538.36" fill="url(#SvgjsPattern3744)" clip-path="url(&quot;#SvgjsClipPath3743&quot;)" transform="rotate(330.65, 451.64, 632.86)"/><rect width="95.2" height="95.2" x="-45.13" y="-5.25" fill="url(#SvgjsPattern3746)" clip-path="url(&quot;#SvgjsClipPath3745&quot;)" transform="rotate(143.3, 2.47, 42.35)"/><rect width="252" height="252" x="344.81" y="46.25" fill="url(#SvgjsPattern3748)" clip-path="url(&quot;#SvgjsClipPath3747&quot;)" transform="rotate(234.29, 470.81, 172.25)"/><rect width="176.16" height="176.16" x="164.59" y="427.89" fill="url(#SvgjsPattern3750)" clip-path="url(&quot;#SvgjsClipPath3749&quot;)" transform="rotate(86.52, 252.67, 515.97)"/></g><defs><mask id="SvgjsMask3738"><rect width="500" height="700" fill="#fff"/></mask><pattern id="SvgjsPattern3740" width="6" height="6" x="0" y="0" patternUnits="userSpaceOnUse"><path fill="none" stroke="rgba(39, 42, 49, 1)" stroke-width="1.33" d="M3 1L3 5M1 3L5 3"/></pattern><clipPath id="SvgjsClipPath3739"><circle cx="374.08" cy="1.32" r="66"/></clipPath><pattern id="SvgjsPattern3742" width="6" height="6" x="0" y="0" patternUnits="userSpaceOnUse"><path fill="none" stroke="rgba(211, 211, 211, 1)" stroke-width="1.85" d="M3 1L3 5M1 3L5 3"/></pattern><clipPath id="SvgjsClipPath3741"><circle cx="349.57" cy="280.07" r="60"/></clipPath><pattern id="SvgjsPattern3744" width="13.5" height="13.5" x="0" y="0" patternUnits="userSpaceOnUse"><path fill="none" stroke="rgba(211, 211, 211, 1)" stroke-width="2.98" d="M6.75 1L6.75 12.5M1 6.75L12.5 6.75"/></pattern><clipPath id="SvgjsClipPath3743"><circle cx="451.64" cy="632.86" r="47.25"/></clipPath><pattern id="SvgjsPattern3746" width="9.52" height="9.52" x="0" y="0" patternUnits="userSpaceOnUse"><path fill="none" stroke="rgba(211, 211, 211, 1)" stroke-width="3.21" d="M4.76 1L4.76 8.52M1 4.76L8.52 4.76"/></pattern><clipPath id="SvgjsClipPath3745"><circle cx="2.47" cy="42.35" r="23.8"/></clipPath><pattern id="SvgjsPattern3748" width="6" height="6" x="0" y="0" patternUnits="userSpaceOnUse"><path fill="none" stroke="rgba(236, 82, 66, 1)" stroke-width="1.31" d="M3 1L3 5M1 3L5 3"/></pattern><clipPath id="SvgjsClipPath3747"><circle cx="470.81" cy="172.25" r="63"/></clipPath><pattern id="SvgjsPattern3750" width="176.16" height="7.34" x="0" y="0" patternUnits="userSpaceOnUse"><rect width="176.16" height="3.67" x="0" y="0" fill="rgba(236, 82, 66, 1)"/><rect width="176.16" height="3.67" x="0" y="3.67" fill="rgba(0, 0, 0, 0)"/></pattern><clipPath id="SvgjsClipPath3749"><circle cx="252.67" cy="515.97" r="44.04"/></clipPath></defs></svg>